<?xml version="1.0" standalone="no"?>
<!DOCTYPE svg PUBLIC "-//W3C//DTD SVG 20010904//EN"
 "http://www.w3.org/TR/2001/REC-SVG-20010904/DTD/svg10.dtd">
<svg version="1.0" xmlns="http://www.w3.org/2000/svg"
 width="1536.000000pt" height="1024.000000pt" viewBox="0 0 1536.000000 1024.000000"
 preserveAspectRatio="xMidYMid meet">
<metadata>
Created by potrace 1.16, written by Peter Selinger 2001-2019
</metadata>
<g transform="translate(0.000000,1024.000000) scale(0.100000,-0.100000)"
fill="#000000" stroke="none">
<path d="M0 5120 l0 -5120 7680 0 7680 0 0 5120 0 5120 -7680 0 -7680 0 0
-5120z m11615 4065 c44 -14 105 -40 135 -57 61 -35 164 -113 195 -149 11 -13
-14 4 -55 38 -101 81 -150 111 -242 144 -264 97 -563 34 -773 -163 -148 -138
-227 -313 -246 -543 l-8 -100 4 115 c5 129 21 202 70 305 103 216 303 376 539
430 99 23 282 13 381 -20z m136 -412 c0 -32 0 -119 0 -193 0 -74 -1 -219 -1
-322 l0 -188 -100 0 -100 0 0 373 c0 206 3 377 7 380 3 4 48 7 100 7 l93 0 1
-57z m-4447 -114 c36 -28 36 -82 1 -105 -25 -16 -25 -18 -25 -153 l1 -136 69
-73 70 -73 0 -165 c0 -139 2 -164 15 -164 8 0 15 5 15 11 0 11 16 10 158 -7
l52 -6 0 77 c0 48 4 74 10 70 6 -3 10 -37 10 -76 0 -39 4 -69 10 -69 6 0 10 5
10 10 0 14 107 13 116 -1 4 -7 10 -7 16 -1 7 7 16 7 29 -1 10 -6 21 -9 24 -5
3 3 9 78 12 166 l6 161 74 73 73 72 0 117 c0 117 0 118 -30 147 -35 36 -37 50
-9 86 39 49 109 24 109 -40 0 -23 -7 -38 -25 -52 -24 -19 -25 -24 -25 -137 l0
-117 -81 -86 -82 -86 6 -150 c4 -82 8 -150 9 -151 2 -2 74 -5 161 -6 l157 -4
0 82 0 82 109 116 c107 114 109 117 104 156 -7 49 16 79 60 79 39 0 67 -26 67
-62 0 -38 -32 -68 -74 -68 -29 0 -46 -13 -140 -111 l-107 -111 3 -79 3 -80 56
-23 c30 -12 73 -36 94 -52 l38 -29 112 117 c87 92 116 116 131 112 12 -3 26 1
34 11 11 14 11 19 -4 33 -14 14 -19 15 -39 3 -21 -12 -21 -12 -6 4 19 20 54
13 63 -12 9 -22 -24 -55 -48 -49 -14 4 -29 -6 -55 -37 -19 -23 -68 -76 -109
-118 l-73 -77 19 -38 c11 -22 25 -58 32 -81 l13 -43 81 0 81 0 155 155 155
155 88 0 c84 0 88 1 97 25 12 32 56 50 87 36 47 -22 49 -96 4 -120 -30 -17
-50 -13 -77 14 -23 23 -32 25 -111 25 l-86 0 -150 -155 -149 -155 -89 0 -89 0
0 -110 0 -110 158 0 c146 0 160 2 177 20 16 18 31 20 161 20 138 0 144 1 155
23 16 29 28 37 61 37 55 0 77 -74 32 -109 -35 -28 -50 -26 -82 7 -26 26 -30
27 -162 30 -134 4 -135 4 -159 -22 -24 -26 -25 -26 -183 -26 l-158 0 0 -109 0
-108 63 -5 c34 -3 91 -4 127 -2 36 3 88 4 116 4 49 -1 54 2 91 43 21 25 74 77
118 118 71 64 68 60 -25 -34 -105 -108 -112 -121 -60 -129 14 -2 -56 -7 -155
-11 -99 -4 -201 -10 -227 -13 l-48 -6 0 -78 c0 -62 3 -79 16 -84 9 -3 75 -6
147 -6 73 0 139 -5 147 -10 10 -6 -39 -10 -147 -10 l-163 0 0 -110 0 -110 125
0 c77 0 125 -4 125 -10 0 -6 -48 -10 -125 -10 l-125 0 0 -90 0 -90 88 0 87 0
63 -67 c35 -38 71 -81 79 -98 8 -16 38 -54 66 -82 l51 -53 89 0 c75 0 92 3
118 22 28 21 32 21 57 7 29 -16 37 -37 28 -75 -14 -53 -86 -53 -106 1 -9 24
-13 25 -99 25 l-90 0 -58 61 c-32 33 -62 71 -66 82 -4 12 -40 55 -80 95 l-71
72 -77 0 -77 0 -11 -47 c-16 -63 -35 -97 -83 -149 l-41 -44 49 -53 c155 -167
184 -197 188 -197 3 0 7 19 9 43 3 41 4 40 5 -10 2 -51 3 -53 102 -156 91 -96
103 -105 135 -104 62 2 93 -58 55 -106 -44 -55 -117 -18 -107 54 l5 39 -230
244 -231 245 -24 -16 c-15 -10 -55 -18 -103 -21 l-77 -4 -7 -61 c-13 -123 -13
-120 72 -210 47 -51 88 -84 105 -88 35 -8 36 -9 43 -45 3 -18 0 -37 -9 -49
-13 -16 -20 -18 -44 -9 -25 8 -28 15 -29 53 -1 40 -6 49 -76 122 l-76 78 -4
100 c-2 55 -6 101 -8 103 -3 2 -46 2 -97 0 -108 -4 -103 5 -103 -156 l0 -109
70 -73 70 -72 0 -160 c0 -130 3 -161 14 -165 8 -3 22 -17 31 -31 14 -22 15
-28 1 -60 -19 -46 -56 -57 -94 -29 -44 33 -42 94 3 115 l25 11 0 158 0 158
-70 75 -70 76 0 132 0 133 -65 -3 c-36 -2 -65 -7 -65 -11 0 -5 -22 -7 -50 -6
l-50 2 0 -487 c0 -474 1 -487 20 -505 11 -10 20 -31 20 -47 0 -15 4 -28 9 -28
6 0 21 -23 35 -50 37 -73 72 -100 119 -93 25 4 37 2 37 -6 0 -7 11 0 24 16 22
26 23 30 9 56 -23 45 -10 51 14 7 21 -40 21 -40 1 -65 l-19 -25 26 -10 c14 -5
31 -10 36 -10 5 0 10 -33 11 -72 l2 -73 3 65 c5 88 23 103 23 20 0 -46 3 -61
10 -50 5 8 10 11 10 5 0 -5 5 -4 12 3 16 16 29 15 22 -1 -3 -10 4 -14 27 -15
17 0 34 -3 37 -6 3 -3 14 1 24 11 17 15 18 14 18 -30 0 -66 17 -58 25 11 13
107 23 125 24 40 1 -55 5 -78 14 -78 43 1 229 57 333 101 35 15 42 23 51 60
l10 44 -1 -47 c0 -27 -4 -48 -8 -48 -5 0 -9 -15 -9 -32 -2 -31 -2 -31 -6 -5
-5 31 -6 31 -35 16 -33 -18 -184 -69 -323 -110 -71 -21 -122 -38 -112 -38 26
-1 42 -43 29 -79 -8 -24 -6 -35 9 -58 11 -16 18 -37 15 -46 -2 -10 0 -18 5
-18 5 0 9 47 9 104 0 59 4 108 10 111 6 4 10 -35 10 -109 l0 -116 26 0 c14 0
32 7 40 15 19 18 54 20 55 3 0 -7 6 5 14 27 l13 40 2 -37 c1 -21 3 -44 4 -50
1 -12 143 -44 152 -35 4 3 64 328 64 343 0 4 2 5 5 2 3 -2 -6 -76 -20 -164
-30 -190 -30 -191 -7 -197 13 -4 11 -5 -5 -6 -39 -2 -26 -29 20 -41 283 -73
437 -175 437 -289 0 -115 -224 -232 -585 -305 -287 -58 -432 -71 -820 -71
-399 0 -528 11 -800 66 -373 76 -595 193 -595 314 0 102 181 218 448 285 25 7
42 17 42 25 0 8 -3 15 -8 15 -15 0 -279 -69 -321 -84 -24 -9 -46 -14 -49 -12
-6 6 206 72 298 92 41 9 76 18 78 19 2 1 -6 74 -17 161 -22 165 -22 217 -1 92
7 -40 18 -107 25 -148 7 -41 13 -63 14 -48 1 27 2 27 49 22 58 -8 102 -32 81
-45 -11 -7 -10 -9 4 -9 14 0 17 9 17 44 0 58 16 68 23 15 3 -22 8 -43 11 -46
2 -3 29 -2 58 2 41 6 48 9 32 15 -26 10 -36 34 -21 49 15 15 44 14 50 -1 8
-19 8 47 1 123 l-7 66 -76 23 c-103 32 -294 101 -305 111 -18 16 2 20 26 6 29
-19 214 -84 290 -102 l57 -13 6 53 c5 34 3 61 -5 75 -6 12 -9 24 -6 28 11 11
19 -8 24 -58 l5 -50 41 6 c22 4 46 12 51 19 6 7 24 15 40 19 19 4 36 18 47 36
27 48 46 39 50 -22 2 -29 4 12 4 93 1 82 5 153 11 164 8 14 10 3 6 -47 -5 -59
-4 -66 17 -81 15 -11 21 -22 16 -34 -6 -17 -5 -17 8 0 16 21 23 21 42 2 36
-35 156 6 162 56 4 32 23 79 32 79 4 0 5 10 3 23 -3 15 4 34 21 54 l26 31 0
485 0 484 -46 7 c-26 3 -80 6 -120 6 l-74 0 0 -133 0 -133 -70 -69 -70 -69 0
-109 c0 -104 1 -110 25 -129 43 -34 29 -103 -25 -120 -26 -9 -67 19 -73 49 -6
32 17 83 38 83 12 0 15 20 15 113 l0 113 70 69 70 69 0 136 0 135 -105 0 -105
0 0 -96 0 -96 -90 -89 c-69 -67 -90 -94 -90 -115 0 -32 -21 -52 -52 -47 -46 6
-31 78 16 78 14 0 53 32 109 88 l88 88 -3 95 -3 94 -60 6 c-70 7 -118 25 -161
62 l-31 27 -87 -90 c-48 -50 -92 -90 -100 -90 -7 0 -58 -47 -113 -105 -84 -87
-100 -109 -96 -130 9 -42 -5 -72 -38 -85 -27 -11 -33 -11 -57 7 -59 44 -30
123 46 123 34 0 46 9 142 105 58 58 108 105 113 105 4 0 46 38 92 86 l85 85
-25 38 c-14 20 -31 60 -37 89 l-13 52 -85 0 c-83 0 -87 -1 -116 -31 -45 -47
-75 -59 -34 -13 19 22 38 43 41 47 3 4 48 9 100 10 l94 2 0 117 c0 64 -4 120
-8 125 -5 4 -63 10 -129 11 l-121 4 -97 -97 c-72 -72 -96 -102 -93 -116 13
-47 -55 -68 -75 -24 -22 49 -11 65 45 65 19 0 50 24 117 89 l91 89 138 7 139
7 -4 94 -3 94 -98 0 c-63 0 -96 4 -92 10 3 6 48 10 98 10 l92 0 -5 62 -5 63
-175 3 c-96 1 -179 7 -184 12 -7 7 57 10 182 10 106 0 192 3 192 8 0 4 -5 14
-10 22 -8 12 -31 15 -127 12 -65 -1 -151 -6 -192 -10 l-75 -9 -77 74 -76 73
-151 0 c-151 0 -152 0 -168 -25 -31 -48 -114 -23 -114 33 0 60 71 83 114 37
23 -24 26 -25 171 -25 l149 0 78 -76 78 -77 68 6 c37 4 114 9 172 12 121 7
153 12 146 24 -3 5 0 34 6 65 11 48 10 59 -2 66 -8 6 -70 10 -137 10 l-122 0
-132 135 c-121 124 -135 135 -161 130 -21 -5 -33 -1 -53 19 -14 14 -25 33 -25
42 0 46 71 72 104 38 9 -8 16 -32 16 -52 1 -34 12 -49 125 -164 l125 -128 135
0 135 0 0 110 0 110 -93 0 -93 0 -74 75 c-41 41 -72 77 -69 79 3 3 36 -26 74
-64 l69 -70 91 0 90 0 12 51 c30 123 149 219 273 219 l47 0 9 83 c7 66 9 73
11 37 2 -25 6 -60 8 -77 l6 -33 104 0 105 0 0 166 0 166 -70 72 -70 73 0 135
c0 133 0 136 -25 152 -46 30 -41 96 8 116 31 12 31 12 61 -11z m-2806 -37
c142 -53 274 -149 350 -256 47 -66 34 -57 -27 18 -29 36 -83 88 -121 116 -375
278 -884 154 -1085 -265 -54 -113 -66 -163 -75 -300 l-7 -110 -1 96 c-6 332
223 631 550 719 59 16 97 19 203 17 116 -3 139 -7 213 -35z m1891 -8 c20 -14
22 -22 17 -54 -5 -35 -3 -40 42 -79 26 -23 58 -53 72 -67 24 -23 32 -24 146
-24 l120 0 38 -39 38 -39 7 -112 c6 -103 8 -114 31 -134 52 -45 154 -158 133
-148 -11 7 -57 51 -102 99 l-81 88 0 98 c0 96 0 98 -32 132 l-33 35 -126 1
c-76 1 -135 -3 -147 -10 -45 -24 -96 24 -72 69 15 28 -35 93 -66 85 -26 -6
-74 29 -74 54 0 25 29 61 48 61 10 0 28 -7 41 -16z m5079 -174 c2 -74 0 -190
-3 -257 l-7 -122 -96 5 -97 4 -3 255 -2 256 102 -3 103 -3 3 -135z m-288 -231
l0 -152 -61 7 c-34 3 -77 6 -95 6 l-34 0 0 145 0 145 95 0 95 0 0 -151z
m-6615 17 c19 -8 44 -30 55 -48 18 -30 20 -50 20 -241 l0 -209 -34 -34 c-24
-24 -43 -34 -65 -34 l-30 0 -3 -71 -3 -71 -84 71 -85 71 -74 0 -74 0 -76 -71
-77 -70 -3 70 -3 71 -30 0 c-16 0 -43 7 -59 15 -54 28 -60 54 -60 272 0 302
-13 292 378 293 215 0 280 -3 307 -14z m1620 -231 c14 -13 25 -29 25 -35 0 -6
37 -10 100 -10 60 0 100 -4 100 -10 0 -6 -40 -10 -100 -10 -92 0 -101 -2 -124
-25 -30 -30 -45 -31 -80 -4 -32 25 -35 70 -6 99 27 27 56 25 85 -5z m7065
-436 c116 -18 268 -92 368 -178 48 -41 19 -28 -37 17 -74 59 -189 117 -278
139 -42 10 -109 17 -173 16 -328 0 -608 -212 -710 -538 -13 -43 -25 -116 -30
-190 l-8 -120 3 125 c3 144 22 216 88 345 58 112 190 245 302 302 166 84 309
109 475 82z m-10500 -306 c85 -19 211 -80 288 -138 74 -56 172 -174 213 -259
35 -72 19 -53 -31 36 -43 77 -175 211 -252 257 -235 138 -492 148 -736 30
-212 -103 -366 -302 -417 -539 -7 -36 -14 -54 -14 -40 -3 80 76 268 153 369
101 131 261 239 416 281 106 29 263 30 380 3z m10468 -28 c38 -32 46 -65 27
-111 -23 -55 -10 -63 103 -66 l97 -3 0 -105 c0 -116 6 -108 -66 -93 -63 12
-115 -49 -107 -127 4 -44 1 -50 -10 -21 -7 18 -10 18 -47 5 -22 -8 -76 -21
-120 -29 -44 -8 -104 -22 -134 -30 -30 -8 -65 -13 -77 -11 -20 4 -24 0 -29
-37 -3 -23 -7 -67 -8 -97 -2 -30 -4 -6 -5 54 -2 99 -3 107 -19 100 -10 -4 -38
-9 -63 -12 -39 -3 -49 0 -73 24 -23 22 -27 35 -27 79 0 47 4 56 31 79 35 30
47 31 96 11 56 -24 63 -11 63 111 l0 104 109 0 c126 0 143 8 117 59 -19 36
-20 58 -2 90 30 53 97 66 144 26z m-3634 -150 c34 -35 28 -83 -15 -105 -26
-14 -56 -4 -75 26 -16 23 -20 24 -145 24 -74 0 -130 4 -134 10 -4 6 40 10 126
10 128 0 132 1 155 25 26 28 65 33 88 10z m-3394 -165 l28 -30 160 0 c89 0
163 -3 165 -7 3 -5 -72 -9 -166 -11 -96 -2 -174 -8 -175 -13 -8 -21 -35 -39
-59 -39 -57 0 -84 69 -43 110 28 28 57 25 90 -10z m-3560 -78 c67 -33 99 -121
71 -194 -14 -37 -60 -77 -104 -90 -36 -11 -44 -10 -86 13 -174 92 -57 360 119
271z m-352 -92 c72 -44 68 -156 -9 -195 -39 -21 -78 -12 -113 24 -54 56 -40
147 27 176 43 19 56 18 95 -5z m667 6 c37 -16 65 -59 65 -101 0 -65 -62 -120
-122 -108 -95 18 -113 170 -26 208 41 18 42 18 83 1z m5898 -34 c19 -15 52
-49 73 -74 22 -25 48 -49 59 -52 11 -3 58 -6 103 -6 81 0 85 1 113 31 24 25
34 30 57 25 57 -14 71 -79 25 -115 -32 -26 -59 -20 -93 20 -24 29 -27 29 -123
29 l-98 0 -62 67 c-34 36 -75 74 -92 85 -18 11 -24 18 -14 18 9 0 32 -13 52
-28z m-6528 -236 l27 -18 -26 -27 c-15 -15 -35 -50 -46 -77 -10 -27 -19 -44
-20 -37 0 6 -8 12 -17 13 -10 0 -53 4 -96 8 -87 8 -82 11 -90 -68 -3 -25 -4
-20 -5 18 -3 89 37 157 113 194 48 22 121 20 160 -6z m374 -7 c69 -35 103 -76
127 -155 15 -50 19 -170 7 -177 -5 -3 -7 20 -5 52 l4 56 -54 16 c-47 15 -55
15 -70 1 -10 -8 -18 -13 -18 -10 0 3 -19 1 -42 -3 -39 -8 -222 -28 -290 -32
-25 -2 -28 -6 -28 -39 l0 -38 223 -3 222 -3 -225 1 -225 0 -3 69 c-6 130 39
215 141 266 84 42 151 41 236 -1z m297 10 c90 -43 83 -72 -22 -89 -48 -7 -77
-17 -81 -26 -4 -11 -11 -6 -25 18 -11 18 -32 45 -46 61 -14 15 -24 27 -21 27
2 0 22 7 44 15 56 20 102 18 151 -6z m3553 -106 c-7 -10 -49 -52 -91 -95 -43
-42 -78 -81 -78 -87 0 -7 -45 -11 -140 -11 -138 0 -140 0 -156 -25 -29 -45
-89 -42 -114 6 -35 64 62 122 108 64 19 -24 23 -25 153 -25 l134 0 90 94 c50
51 94 94 99 95 5 0 2 -7 -5 -16z m7893 -384 c9 -35 17 -77 16 -94 l0 -30 -9
32 c-8 28 -12 31 -32 24 -25 -10 -79 -3 -88 11 -9 14 -57 -30 -85 -78 -27 -45
-44 -62 -23 -21 42 79 172 231 193 224 6 -2 19 -32 28 -68z m-9856 -744 c726
-104 696 -98 731 -152 16 -24 19 -66 23 -387 l5 -359 61 -13 c33 -6 94 -26
135 -44 68 -29 80 -32 156 -27 69 4 84 2 97 -12 18 -20 21 -73 6 -101 -9 -17
-5 -21 30 -30 88 -24 95 -158 12 -231 -19 -17 -22 -18 -11 -4 47 58 65 131 44
181 -11 27 -22 36 -58 46 -43 11 -44 12 -31 37 19 35 17 65 -3 90 -16 19 -22
20 -58 10 -53 -15 -93 -8 -207 35 -180 67 -306 69 -430 8 -32 -16 -53 -23 -48
-16 25 29 134 66 211 71 l79 6 0 339 c0 320 -1 341 -20 378 -23 46 -55 65
-125 74 -138 19 -841 127 -850 130 -24 10 26 4 251 -29z m7779 -158 c0 -83 21
-147 69 -210 l32 -42 -82 9 c-68 7 -84 13 -93 30 -11 21 -11 21 -7 -1 3 -17
-1 -23 -14 -23 -13 0 -16 6 -12 26 4 23 2 25 -24 22 -29 -3 -29 -4 -29 -68 0
-36 4 -76 9 -90 7 -21 6 -23 -5 -12 -8 8 -15 43 -18 89 -4 82 9 106 48 96 16
-4 20 4 25 50 8 63 56 170 83 186 10 6 18 11 18 11 0 0 0 -33 0 -73z m-8540
-53 c20 -8 45 -56 45 -87 0 -34 -36 -77 -65 -77 -37 0 -55 10 -70 41 -41 79
12 152 90 123z m6695 -78 c0 -7 14 -19 30 -26 l31 -13 -7 -67 c-6 -64 -5 -70
30 -135 29 -55 36 -79 36 -125 0 -58 11 -80 42 -80 12 0 26 17 42 53 30 67 49
84 81 69 13 -6 29 -21 35 -34 l11 -23 -19 23 c-23 30 -59 26 -79 -8 -11 -17
-11 -20 -2 -9 23 25 44 29 57 8 12 -18 11 -18 -8 -7 -34 21 -50 -11 -52 -106
-1 -64 -2 -69 -5 -26 -5 73 -11 91 -24 68 -6 -10 -21 -18 -35 -18 -13 0 -27
-7 -30 -15 -4 -8 -12 -15 -19 -15 -7 0 -12 -8 -11 -17 2 -10 -1 -21 -6 -24 -5
-3 -2 -13 7 -23 15 -15 15 -16 -2 -16 -15 0 -15 -2 -3 -10 9 -5 19 -5 27 2 21
17 15 -4 -9 -29 -12 -13 -28 -23 -35 -23 -8 0 -11 -4 -8 -10 3 -5 3 -10 -2
-10 -4 0 -8 -10 -8 -23 0 -18 6 -22 34 -24 42 -2 59 -17 42 -37 -7 -8 -20 -15
-29 -15 -9 0 -35 -4 -57 -10 -29 -7 -42 -7 -48 2 -11 16 2 -83 15 -106 5 -11
16 -16 24 -13 9 3 12 1 9 -4 -5 -9 16 -15 38 -11 5 1 6 -3 2 -9 -10 -17 -42
-11 -70 13 -25 21 -53 109 -60 184 -1 13 -5 26 -8 30 -4 3 -7 30 -7 60 0 51
-1 53 -35 67 -19 8 -38 22 -41 29 -3 8 14 52 37 98 40 81 47 114 34 162 -6 21
-6 21 9 3 9 -11 16 -16 16 -12 0 5 7 3 15 -4 24 -20 19 11 -8 48 -19 25 -26
29 -36 19 -11 -10 -12 -5 -6 23 16 81 48 190 56 190 5 0 9 -6 9 -14z m-7635
-136 c14 -59 15 -80 5 -137 -12 -75 -8 -95 35 -162 34 -54 33 -80 -4 -94 -24
-9 -30 -17 -35 -56 -12 -99 -45 -213 -69 -241 -26 -30 -66 -25 -112 16 -24 21
-31 30 -17 24 24 -12 57 -21 80 -22 6 -1 12 -5 12 -9 0 -4 -6 -10 -12 -12 -7
-3 -8 -6 -2 -6 28 -2 49 32 75 125 27 94 37 161 21 139 -4 -6 -20 -16 -36 -23
-30 -13 -30 -22 1 -26 21 -4 21 -12 -2 -106 -13 -54 -21 -70 -34 -68 -19 3
-32 57 -18 76 10 13 1 16 -40 12 -13 -1 -23 3 -23 8 0 6 -16 10 -35 10 -26 0
-35 -4 -36 -16 0 -11 -4 -8 -10 8 -6 14 -9 44 -6 68 4 35 2 42 -13 42 -10 0
-24 8 -31 18 -11 14 -11 15 1 5 8 -7 22 -13 31 -13 10 0 24 -9 32 -20 8 -11
17 -17 20 -13 4 3 7 1 7 -5 0 -7 6 -12 14 -12 8 0 21 -6 28 -12 7 -7 22 -14
33 -15 11 -1 14 0 7 3 -17 8 -5 24 17 24 28 0 26 53 -2 66 -12 5 -21 15 -19
22 1 7 -2 12 -8 12 -14 0 -8 22 12 41 17 15 16 17 -6 38 -20 19 -28 21 -46 11
-12 -6 -24 -9 -27 -6 -4 3 -12 1 -19 -5 -9 -7 -14 -2 -19 21 -4 17 -4 34 -1
37 3 4 1 12 -5 20 -13 14 -59 18 -59 4 0 -4 11 -6 24 -4 13 3 27 0 30 -6 5 -7
1 -9 -9 -5 -8 4 -22 1 -30 -6 -11 -9 -15 -9 -15 -1 0 7 -5 9 -11 5 -8 -5 -8
-1 0 14 27 50 80 32 101 -34 7 -19 16 -34 21 -34 12 0 36 40 45 75 4 17 23 51
42 78 38 50 50 60 32 28 -6 -12 -6 -22 -1 -25 5 -3 12 2 16 12 11 25 13 52 3
46 -12 -8 -10 1 8 40 14 29 19 32 30 21 21 -21 17 -54 -11 -87 -26 -30 -36
-63 -13 -40 21 21 31 13 24 -20 -4 -26 -3 -29 5 -15 6 9 9 25 8 35 -1 9 1 25
6 35 11 25 0 130 -14 135 -6 2 -9 7 -6 11 2 5 0 23 -5 42 -8 30 -8 32 4 16 8
-10 22 -49 31 -87z m973 3 c39 -29 61 -64 64 -103 3 -31 -1 -37 -32 -52 -51
-26 -109 -23 -170 10 -69 35 -76 48 -57 95 31 73 130 99 195 50z m8420 -36 c2
-15 6 -27 10 -27 17 1 34 19 28 29 -8 13 64 14 128 3 32 -6 41 -12 47 -36 4
-15 16 -38 26 -50 10 -11 14 -18 9 -14 -5 4 -17 -4 -28 -17 -11 -14 -23 -23
-28 -20 -5 3 -8 -4 -7 -15 1 -11 5 -20 9 -20 4 0 7 -3 7 -7 -3 -18 2 -34 9
-30 4 2 18 -7 32 -21 21 -21 22 -24 5 -18 -11 4 -16 4 -12 0 4 -4 -1 -16 -10
-26 -17 -20 -28 -82 -12 -72 5 3 9 1 9 -4 0 -15 34 -10 54 7 18 15 18 15 8 -5
-16 -31 -70 -74 -121 -97 -32 -14 -54 -17 -88 -12 -40 6 -46 11 -65 51 -19 38
-38 57 -38 39 0 -11 32 -70 49 -90 16 -20 16 -20 -5 -2 -25 21 -37 12 -22 -17
6 -11 -8 -1 -30 24 -23 25 -41 40 -42 34 0 -6 7 -17 16 -25 8 -7 22 -26 30
-43 l16 -31 -24 26 c-22 26 -58 45 -58 32 0 -4 8 -16 17 -27 10 -12 4 -8 -14
7 -39 36 -87 41 -111 13 -17 -21 -17 -21 4 -3 21 17 22 17 27 -2 5 -21 52 -49
64 -38 3 4 0 15 -8 25 -8 10 -4 7 9 -6 24 -25 29 -47 10 -39 -38 14 -58 17
-58 10 0 -4 9 -32 20 -61 26 -68 27 -125 3 -119 -10 2 -31 -3 -47 -11 -22 -11
-30 -11 -36 -2 -9 15 -16 -3 -26 -73 -3 -26 -11 -50 -17 -54 -6 -4 -8 4 -3 23
4 16 9 85 12 154 7 181 8 183 65 236 69 66 114 97 142 97 22 0 25 4 24 33 -1
19 -4 34 -8 34 -3 0 -9 19 -12 42 -3 24 -11 44 -17 46 -6 2 -23 14 -38 27 -26
22 -26 23 -8 50 17 26 19 27 28 9 23 -42 68 -53 68 -15 0 14 -2 14 -10 1 -8
-13 -9 -13 -14 0 -12 41 -13 63 -3 95 12 40 30 41 35 2z m-7428 -467 c39 -28
90 -97 90 -122 0 -11 -13 -26 -32 -36 -18 -9 -45 -29 -61 -44 -28 -28 -59 -34
-104 -22 -22 6 -23 10 -23 133 0 70 3 130 6 134 9 9 90 -19 124 -43z m-1006
-193 c-7 -25 -125 -210 -136 -215 -5 -2 -8 -7 -8 -12 0 -4 19 -1 43 8 59 21
81 12 73 -31 -5 -27 -2 -34 16 -42 13 -6 25 -21 26 -35 2 -14 10 -29 18 -33 8
-4 14 -16 14 -27 0 -12 9 -20 28 -24 15 -3 162 -31 327 -61 165 -30 351 -65
413 -76 l112 -21 -2 -37 -1 -36 -4 33 c-2 17 -7 32 -11 32 -10 0 -679 125
-807 151 -33 6 -51 6 -53 0 -6 -19 -44 -61 -54 -61 -7 0 -1 11 12 25 13 14 21
28 17 31 -12 12 -28 -9 -67 -86 -37 -74 -106 -150 -135 -150 -7 0 -23 -40 -36
-90 -12 -49 -26 -90 -31 -90 -11 0 -11 6 13 90 15 51 30 82 48 98 24 21 25 22
4 19 -11 -2 -28 -9 -36 -15 -12 -10 -16 -10 -20 0 -5 12 -9 -8 -6 -28 0 -4 -5
-11 -13 -15 -10 -7 -9 -9 5 -9 9 0 17 -5 17 -12 0 -19 -31 -48 -52 -48 -23 0
-23 -7 0 -28 10 -10 13 -14 7 -10 -6 4 -31 17 -56 28 -30 15 -35 19 -16 15 27
-5 27 -4 16 17 -7 13 -20 30 -31 39 -11 10 -16 24 -13 35 3 11 -8 -8 -24 -41
-41 -84 -38 -53 5 47 23 54 41 117 50 178 16 104 37 176 59 206 13 17 14 16 9
-16 -8 -45 7 -31 34 33 23 52 20 59 -9 25 l-20 -23 17 28 c9 15 21 27 28 28 6
0 34 32 61 70 89 124 190 205 169 136z m-1258 -35 c-8 -15 -21 -53 -30 -84
-17 -56 -17 -56 9 -93 22 -34 30 -55 26 -77 0 -4 34 -25 77 -47 150 -75 202
-144 307 -401 26 -63 80 -180 120 -260 97 -191 111 -262 18 -87 -46 85 -78
134 -98 147 -22 14 -25 20 -12 20 9 0 17 4 17 8 0 22 -154 352 -190 407 -43
66 -74 90 -240 184 -52 29 -87 50 -77 47 51 -17 67 -18 67 -5 0 17 -35 76 -63
107 -16 17 -17 21 -5 17 11 -5 17 2 23 22 11 46 47 123 56 123 5 0 3 -12 -5
-28z m8205 -83 c6 -35 12 -65 13 -66 2 -2 23 8 47 22 67 38 69 30 3 -14 -32
-21 -71 -49 -86 -63 -27 -26 -63 -87 -55 -94 2 -2 26 3 53 11 84 25 73 16 -31
-25 -193 -78 -379 -175 -433 -228 -45 -44 -120 -167 -109 -179 3 -2 121 7 263
21 143 14 300 27 349 30 84 5 86 4 25 -4 -36 -5 -252 -27 -480 -50 -228 -22
-509 -49 -625 -61 -115 -11 -279 -26 -364 -34 -139 -13 -156 -17 -188 -41 -65
-49 -63 -29 -63 -715 l0 -621 28 6 27 5 -25 -11 c-14 -6 -48 -22 -76 -35 -28
-13 -75 -47 -105 -76 -36 -36 -46 -42 -31 -20 27 38 84 85 132 108 l35 16 -3
613 c-3 426 0 625 7 654 15 55 54 99 99 112 30 9 585 63 883 87 l76 6 37 74
c70 141 155 207 403 308 84 34 93 41 104 72 6 20 29 53 50 74 l39 39 -14 61
c-8 33 -12 67 -9 75 8 23 13 12 24 -57z m-4777 -163 c-49 -25 -114 -67 -145
-95 -49 -44 -58 -57 -74 -117 -13 -47 -17 -97 -16 -168 1 -79 -4 -122 -23
-196 -50 -195 -108 -320 -150 -320 -6 0 -22 -3 -36 -6 -14 -3 -7 3 16 14 52
25 73 61 118 194 46 140 55 197 58 346 2 99 1 118 -8 96 -8 -19 -13 -23 -17
-13 -3 8 -6 -2 -6 -21 -1 -19 -4 -46 -6 -60 -3 -14 -3 -19 1 -12 14 29 24 8
24 -50 l0 -63 -23 27 c-14 17 -30 27 -44 26 -20 -2 -23 -8 -23 -49 0 -27 5
-49 12 -51 7 -3 8 -10 4 -17 -7 -11 -10 -11 -18 0 -6 10 -8 8 -6 -8 2 -12 -1
-23 -7 -24 -5 0 -17 -5 -27 -10 -11 -6 -18 -4 -22 8 -4 9 -4 18 -1 21 3 3 5 0
5 -6 0 -7 4 -12 10 -12 5 0 7 7 4 15 -5 11 -2 13 9 9 18 -7 23 15 32 141 5 73
-1 108 -19 106 -23 -3 -36 0 -31 9 10 16 52 12 59 -6 3 -9 6 -38 6 -65 0 -88
35 -52 46 47 4 33 13 72 21 87 8 15 11 33 7 39 -4 6 -3 8 4 4 18 -11 35 62 28
120 -3 29 -2 55 3 58 9 6 21 -63 21 -118 l0 -30 48 46 c67 66 199 146 241 148
7 0 -27 -20 -75 -44z m118 -96 c28 -41 108 -97 210 -145 52 -25 101 -45 108
-45 7 0 11 -2 8 -5 -9 -9 -198 42 -279 75 -41 16 -75 30 -76 30 -2 0 -2 48 -2
108 1 81 3 95 8 57 4 -27 14 -61 23 -75z m953 -426 c333 -36 839 -35 1153 1
79 9 145 15 148 12 6 -6 -262 -36 -431 -47 -315 -22 -777 -1 -1035 45 -81 15
-65 14 165 -11z m-342 -224 c150 -22 499 -74 777 -115 278 -42 543 -81 590
-87 70 -9 89 -16 112 -38 15 -15 30 -38 33 -51 3 -14 -27 -172 -70 -369 -42
-190 -83 -380 -92 -423 -9 -42 -18 -76 -20 -73 -2 2 35 194 82 426 93 453 94
462 42 488 -12 7 -220 41 -462 77 -242 36 -467 69 -500 75 -33 5 -139 21 -235
34 -96 14 -267 39 -378 55 -216 32 -228 32 -256 -12 -8 -12 -37 -121 -65 -242
-27 -121 -78 -339 -112 -485 -34 -146 -61 -269 -61 -275 0 -5 16 -52 36 -103
20 -51 36 -98 36 -105 0 -6 -21 40 -46 103 -63 159 -130 283 -184 338 -50 51
-172 127 -290 180 -46 20 -62 31 -41 26 32 -6 33 -5 27 19 -20 83 -72 146
-187 230 -14 11 -7 9 20 -5 96 -50 181 -158 181 -228 0 -22 12 -31 98 -73 168
-83 228 -138 301 -281 34 -67 41 -75 46 -55 3 13 39 173 80 354 42 182 90 393
107 470 38 162 52 185 118 185 23 0 164 -18 313 -40z m3835 -2 c17 -17 17
-264 0 -275 -7 -4 -53 -12 -103 -18 l-90 -10 -3 -97 -3 -98 38 -1 c21 -1 -31
-9 -115 -19 -85 -10 -158 -22 -163 -27 -5 -5 -8 -60 -7 -124 l3 -114 30 2
c194 16 431 46 438 56 6 9 7 8 5 -3 -3 -11 -34 -19 -114 -30 l-109 -15 -6 -90
-5 -90 -2 88 -2 87 -42 -1 c-24 0 -74 -4 -113 -8 -38 -4 -76 -6 -82 -3 -18 6
-18 248 -1 258 7 5 62 13 122 19 l109 10 4 64 c3 35 2 79 -2 98 l-6 35 -101
-8 c-116 -8 -118 -7 -118 74 0 49 -1 52 -22 48 -13 -3 -75 -8 -138 -11 -63 -4
-118 -9 -122 -12 -5 -2 -8 3 -8 12 0 9 3 14 8 12 4 -3 65 1 136 9 71 7 133 11
138 8 4 -3 8 24 8 59 0 44 5 68 14 76 8 7 86 19 173 27 87 8 167 16 178 18 42
7 61 6 73 -6z m-838 -355 c-14 -2 -40 -6 -57 -9 l-33 -5 0 -100 0 -100 95 7
95 7 0 -65 0 -65 58 8 c109 13 207 19 192 10 -8 -5 -53 -12 -100 -15 -47 -4
-100 -9 -117 -13 -33 -5 -33 -6 -33 -64 0 -50 -3 -59 -17 -58 -11 0 -13 3 -5
6 9 3 12 38 12 124 0 109 -2 119 -18 119 -52 0 -337 -31 -344 -38 -4 -4 -9
-50 -11 -102 l-3 -95 -2 102 c-1 60 2 104 8 108 6 4 47 9 93 13 l82 7 3 103 3
102 -38 2 c-32 1 -29 2 17 8 58 7 163 10 120 3z"/>
<path d="M7001 7724 c-56 -28 -95 -69 -122 -129 -17 -37 -19 -81 -19 -656 l0
-615 26 -52 c27 -54 79 -103 136 -126 28 -12 142 -15 653 -15 698 0 660 -4
742 78 75 75 73 58 73 740 0 565 -2 609 -19 646 -27 59 -68 103 -122 130 l-48
25 -625 -1 -624 0 -51 -25z m1291 -117 c24 -13 45 -36 58 -62 19 -40 20 -62
20 -605 l0 -563 -25 -43 c-16 -28 -39 -49 -68 -63 -42 -21 -55 -21 -605 -21
-371 0 -570 4 -589 11 -42 15 -92 68 -103 109 -6 21 -10 254 -10 583 0 526 1
549 20 587 32 63 71 84 170 90 47 3 312 3 590 2 490 -4 506 -5 542 -25z"/>
<path d="M7068 7600 c-20 -11 -45 -35 -57 -53 -21 -34 -21 -43 -21 -603 0
-647 -3 -619 80 -661 l44 -23 559 0 c536 0 559 1 597 20 21 11 49 34 62 52
l23 33 3 565 2 565 -22 44 c-44 85 -15 81 -663 81 -543 -1 -572 -2 -607 -20z
m570 -357 c17 -49 78 -226 136 -395 l105 -308 -82 0 -83 0 -25 78 -25 77 -149
0 -148 0 -26 -75 -27 -75 -77 -3 c-62 -2 -77 0 -77 12 0 12 170 518 245 729
l17 47 93 0 93 0 30 -87z m492 -308 l0 -395 -80 0 -80 0 0 395 0 395 80 0 80
0 0 -395z"/>
<path d="M7465 7001 c-27 -83 -46 -153 -43 -156 3 -3 48 -4 100 -3 l95 3 -51
153 -51 153 -50 -150z"/>
<path d="M6660 4260 c-184 -51 -330 -133 -364 -205 -15 -32 -16 -44 -7 -75 44
-147 438 -282 961 -330 664 -60 1415 39 1695 225 67 45 95 85 95 138 0 53 -65
121 -162 169 -70 34 -253 98 -282 98 -22 0 -28 -53 -8 -69 16 -13 16 -13 0 -8
-14 5 -18 -4 -23 -59 -6 -53 -13 -70 -36 -93 -80 -80 -335 -141 -687 -163
-428 -27 -935 54 -1048 167 -19 19 -24 35 -24 77 0 78 -8 86 -64 58 -26 -12
-62 -37 -81 -55 -71 -66 -34 -137 106 -203 239 -113 829 -171 1284 -127 163
16 180 17 174 11 -2 -2 -80 -12 -173 -21 -295 -30 -699 -14 -996 40 -240 44
-427 135 -445 215 -12 55 56 128 152 162 27 10 33 17 33 40 0 33 -8 34 -100 8z"/>
<path d="M10320 3070 c-91 -10 -166 -18 -167 -19 -2 -1 -3 -60 -3 -132 l0
-131 43 5 c23 4 96 11 162 17 66 6 139 13 163 16 l42 5 0 130 0 129 -37 -1
c-21 -1 -112 -10 -203 -19z m112 -87 c22 -19 24 -76 4 -92 -8 -7 -46 -15 -84
-18 l-69 -6 -7 37 c-11 56 -1 74 47 84 64 15 89 14 109 -5z"/>
</g>
</svg>
