<?xml version="1.0" standalone="no"?>
<!DOCTYPE svg PUBLIC "-//W3C//DTD SVG 20010904//EN"
 "http://www.w3.org/TR/2001/REC-SVG-20010904/DTD/svg10.dtd">
<svg version="1.0" xmlns="http://www.w3.org/2000/svg"
 width="1536.000000pt" height="1024.000000pt" viewBox="0 0 1536.000000 1024.000000"
 preserveAspectRatio="xMidYMid meet">
<metadata>
Created by potrace 1.16, written by Peter Selinger 2001-2019
</metadata>
<g transform="translate(0.000000,1024.000000) scale(0.100000,-0.100000)"
fill="#000000" stroke="none">
<path d="M0 5120 l0 -5120 7680 0 7680 0 0 5120 0 5120 -7680 0 -7680 0 0
-5120z m11332 3658 c53 -16 123 -85 137 -134 6 -22 10 -73 9 -114 l-1 -75 -6
76 c-9 106 -40 164 -111 207 l-54 32 -462 0 -462 0 -53 -28 c-39 -20 -62 -41
-84 -77 l-30 -48 -3 -237 c-3 -206 -2 -238 12 -249 20 -17 20 -55 0 -86 -13
-20 -15 -51 -12 -187 3 -143 6 -168 25 -203 47 -89 103 -117 248 -125 l110 -7
-106 -1 c-157 -3 -220 26 -272 123 -19 35 -23 61 -27 205 l-5 165 -28 3 c-16
2 -36 15 -49 32 l-21 28 -186 1 c-126 0 -195 -3 -214 -12 -31 -14 -587 -584
-587 -602 0 -7 -7 -18 -16 -26 -10 -8 -14 -23 -11 -43 3 -25 2 -28 -6 -14 -10
15 -12 15 -23 0 -12 -16 -14 -16 -27 2 -8 11 -19 16 -26 12 -8 -5 -23 4 -40
22 l-27 31 -124 1 c-69 1 -133 1 -142 1 -9 -1 -19 -9 -23 -19 -7 -25 -47 -43
-68 -30 -17 9 -21 6 -252 -240 l-50 -54 20 -64 20 -64 76 0 76 0 80 84 c45 45
101 98 127 116 37 27 45 37 40 56 -12 45 70 86 104 52 22 -22 15 -76 -13 -94
-21 -14 -30 -14 -55 -4 -27 11 -33 10 -67 -19 -21 -18 -42 -35 -48 -40 -5 -4
-45 -45 -88 -90 l-78 -81 -79 0 -80 0 0 -100 0 -100 153 0 152 1 48 44 c26 24
47 52 47 62 0 24 10 37 37 52 31 16 41 14 68 -14 30 -29 31 -49 5 -75 -24 -24
-57 -26 -80 -5 -15 14 -22 10 -74 -35 l-57 -50 -150 0 -149 0 0 -105 0 -105
78 0 c42 0 87 -3 99 -6 15 -4 28 2 44 20 l23 27 164 -2 163 -1 20 26 c25 31
61 34 89 6 25 -25 25 -41 -1 -74 -26 -33 -53 -33 -85 -1 -25 25 -27 25 -186
25 -153 0 -163 -1 -185 -22 -21 -20 -33 -22 -109 -19 -107 3 -114 -2 -114 -85
l0 -64 208 -2 207 -2 -205 -6 -205 -5 -3 -57 -3 -58 116 0 117 0 66 -62 c37
-35 71 -69 78 -77 8 -11 15 -11 34 -1 19 10 27 9 49 -8 32 -24 37 -46 17 -77
-33 -51 -111 -19 -104 42 3 24 -8 39 -68 96 l-71 67 -117 0 -116 0 0 -150 0
-150 72 0 71 0 94 -92 c87 -87 95 -93 129 -90 45 5 74 -20 74 -61 0 -60 -59
-88 -100 -47 -13 13 -20 33 -20 56 0 33 -10 47 -92 130 l-92 94 -67 0 c-72 0
-79 -5 -79 -58 0 -44 -44 -125 -83 -155 -57 -43 -100 -57 -177 -57 l-70 0 0
-96 0 -96 63 -63 c58 -59 65 -63 98 -58 35 5 37 7 43 50 3 25 7 89 8 142 2 93
2 91 10 -49 5 -80 8 -190 8 -245 -1 -55 2 -115 5 -132 6 -31 9 -33 46 -33 43
0 108 25 115 45 3 7 19 9 47 5 37 -5 45 -3 64 19 19 22 24 24 32 12 13 -20 20
12 24 109 3 73 3 73 5 -18 l2 -93 47 33 c76 54 255 236 326 333 l67 90 -48 4
-47 5 55 5 55 6 39 73 c22 39 41 70 44 68 2 -3 -12 -34 -32 -70 l-37 -66 32 0
c27 0 63 31 300 261 228 222 268 265 263 284 -4 16 2 28 22 44 33 26 45 26 77
1 23 -18 40 -20 191 -20 100 0 166 4 166 10 0 5 9 14 21 20 38 21 78 -37 47
-68 -17 -17 -57 -15 -64 3 -5 13 -34 15 -174 15 -160 0 -169 -1 -175 -20 -7
-23 -44 -35 -79 -26 -21 5 -58 -27 -289 -254 -257 -253 -266 -260 -305 -260
-39 0 -41 -2 -108 -97 -74 -105 -230 -268 -331 -347 l-63 -49 0 -188 c0 -189
0 -189 23 -190 l22 -2 -22 -4 c-13 -3 -23 -12 -23 -21 0 -13 27 -26 113 -52
327 -101 479 -243 411 -386 -44 -92 -213 -194 -427 -259 -163 -48 -169 -43
-12 10 175 60 282 114 355 181 103 96 107 172 12 264 -69 67 -165 119 -307
165 -139 46 -145 46 -145 -5 0 -33 5 -42 28 -55 l27 -15 -28 6 -27 6 5 -66 c5
-53 2 -72 -11 -96 -131 -221 -1129 -311 -1729 -155 -120 31 -189 59 -246 97
-67 45 -80 72 -76 157 2 40 -1 71 -6 71 -5 0 -36 -14 -68 -32 -121 -64 -153
-142 -86 -213 63 -68 181 -122 387 -179 43 -12 46 -14 15 -10 -60 9 -222 63
-289 96 -32 16 -80 50 -107 75 -44 41 -49 50 -49 89 0 58 45 108 140 158 65
34 70 39 70 70 0 18 -3 35 -6 38 -3 4 -47 -5 -97 -18 -98 -26 -294 -117 -339
-158 -73 -66 -95 -137 -64 -209 33 -80 213 -190 416 -256 390 -126 968 -172
1625 -127 73 5 75 4 23 -4 -82 -13 -399 -30 -563 -30 -784 1 -1470 198 -1535
442 -18 63 0 112 65 175 79 77 205 134 462 209 16 4 5 34 -13 34 -24 0 -176
-38 -264 -65 -121 -39 -256 -107 -319 -162 -143 -125 -114 -255 84 -378 86
-53 162 -86 330 -141 72 -24 124 -43 117 -43 -7 -1 -70 17 -140 40 -229 74
-394 168 -458 260 -24 36 -29 52 -29 105 0 54 4 68 33 107 l32 46 -82 80 -83
80 -530 2 c-291 0 -516 4 -499 8 17 5 250 9 517 10 492 2 512 1 542 -34 6 -6
40 -40 77 -74 l67 -63 46 32 c99 68 285 140 493 191 l92 22 0 187 0 188 -25
16 c-99 65 -281 254 -382 399 -51 72 -57 77 -91 77 -35 1 -52 16 -336 310
-253 262 -301 308 -317 300 -25 -14 -67 4 -80 33 -14 31 -65 37 -328 37 -185
0 -197 -1 -209 -20 -7 -11 -23 -20 -37 -20 -23 0 -25 4 -25 45 0 41 2 45 25
45 14 0 29 -8 35 -20 10 -19 21 -20 266 -20 l256 0 30 25 c36 31 48 31 83 4
22 -18 26 -28 22 -58 -5 -41 -27 -15 377 -433 175 -181 215 -218 238 -218 16
0 28 2 28 4 0 3 -16 33 -36 66 -20 34 -34 63 -32 66 3 2 22 -27 42 -65 45 -81
170 -252 247 -335 58 -64 228 -216 241 -216 4 0 9 44 10 98 2 89 2 91 5 22 4
-106 7 -115 40 -118 70 -5 122 -24 126 -45 2 -12 5 0 6 26 1 57 21 55 21 -2
l0 -38 45 8 c25 5 54 13 65 19 17 9 20 7 22 -12 1 -13 4 2 7 32 5 44 2 60 -13
82 -12 16 -16 35 -13 50 29 116 36 170 38 276 l1 124 -34 31 c-41 38 -75 100
-84 154 l-6 38 -68 -3 -69 -4 -80 -84 c-72 -75 -81 -88 -81 -122 0 -49 -23
-82 -59 -82 -35 0 -64 32 -64 70 0 44 19 60 70 60 44 0 48 3 130 90 l85 90 69
0 69 0 0 139 0 139 -31 6 c-17 3 -82 6 -143 6 -107 0 -113 -1 -134 -25 -41
-47 -112 -23 -112 38 0 71 71 91 116 32 l26 -35 139 0 139 0 0 139 0 139 -116
7 c-64 4 -190 6 -280 3 -154 -4 -165 -6 -188 -27 -32 -30 -74 -30 -98 -1 -23
29 -23 55 2 80 29 29 74 26 100 -7 l22 -28 276 0 277 0 3 101 3 102 -38 10
-38 10 38 1 37 1 0 115 0 115 -86 0 -86 0 -134 125 c-73 69 -138 125 -143 125
-5 0 -13 -4 -16 -10 -10 -16 -57 -12 -77 7 -25 22 -24 79 1 93 47 25 101 -1
101 -49 1 -20 29 -52 131 -146 l131 -120 89 -5 89 -5 0 26 c0 40 58 145 98
179 l36 29 -120 121 -119 121 -153 0 c-92 0 -152 3 -152 9 0 6 60 10 152 10
l152 0 128 -128 127 -127 33 12 c18 6 59 12 91 12 l57 1 0 83 0 82 -150 150
c-142 142 -151 149 -186 147 -47 -3 -74 20 -74 64 0 23 7 38 22 48 32 22 55
20 84 -9 20 -20 24 -31 19 -57 -6 -32 1 -40 150 -188 l155 -155 0 -82 0 -83
95 0 95 0 0 110 c0 89 -3 112 -15 116 -8 4 -15 10 -15 15 0 5 11 2 25 -7 24
-16 25 -20 25 -125 l0 -109 110 0 110 0 0 351 0 351 -26 20 c-35 28 -31 86 9
108 24 13 30 13 55 0 39 -22 43 -80 8 -108 l-26 -20 0 -345 0 -344 31 -7 c17
-3 62 -6 100 -6 l69 0 0 54 c0 30 5 58 10 61 6 4 10 -17 10 -55 l0 -61 103 3
102 3 3 104 3 103 117 125 c102 109 117 129 114 156 -4 45 22 77 63 77 62 0
87 -71 38 -110 -19 -15 -35 -19 -55 -15 -26 6 -38 -4 -148 -117 l-119 -123 -1
-56 c0 -31 3 -77 6 -103 l7 -46 71 0 71 0 114 115 114 115 92 0 c70 0 96 4
105 15 7 8 27 15 46 15 18 0 39 -7 48 -15 11 -12 43 -15 154 -15 138 0 140 0
156 25 9 14 23 25 31 25 14 0 14 4 0 33 l-16 32 26 -33 c15 -18 33 -31 40 -28
7 2 26 -4 44 -15 l31 -19 132 136 c73 74 204 208 291 297 l157 162 211 3 c186
3 211 5 216 20 11 32 36 52 65 52 l28 0 0 216 c0 242 5 273 59 335 68 80 56
79 580 79 330 0 475 -3 503 -12z m-6430 -86 c9 -4 -195 -9 -455 -10 -421 -4
-476 -6 -512 -21 -50 -22 -101 -79 -114 -129 -7 -23 -11 -213 -11 -485 -1
-284 -4 -446 -10 -442 -6 4 -10 182 -10 466 l0 460 25 49 c25 49 69 90 115
109 28 11 945 14 972 3z m6012 -205 c7 -42 13 -49 44 -62 33 -14 36 -14 68 10
18 14 36 25 40 25 12 0 84 -72 84 -84 0 -5 -12 -24 -26 -43 -25 -33 -25 -36
-11 -71 13 -32 21 -38 58 -46 53 -11 57 -17 54 -71 -4 -55 -10 -65 -41 -65
-39 0 -61 -17 -74 -55 -11 -32 -9 -38 14 -66 14 -17 26 -34 26 -38 0 -4 -18
-24 -40 -46 l-39 -38 -39 26 -38 27 -42 -20 c-31 -15 -42 -27 -42 -43 0 -12
-3 -17 -8 -11 -7 11 -24 17 -90 34 -32 8 -33 7 -28 -13 3 -12 6 -33 6 -45 0
-23 3 -24 55 -20 30 1 55 0 55 -4 0 -5 -27 -8 -60 -8 l-59 0 -6 38 c-10 58
-12 60 -54 73 -35 10 -42 9 -69 -10 -17 -11 -34 -21 -39 -21 -5 0 -26 18 -47
39 l-38 39 27 36 c25 33 26 39 15 69 -17 42 -37 57 -77 57 -37 0 -47 19 -41
86 3 38 4 39 50 48 42 8 48 13 62 49 15 38 15 40 -9 72 -14 17 -25 35 -25 38
0 13 72 87 84 87 7 0 27 -11 45 -24 28 -21 37 -23 60 -13 36 15 51 36 51 72 0
18 3 35 7 39 4 4 34 6 68 4 l60 -3 9 -48z m-6165 -344 c-1 -120 -5 -247 -9
-283 l-7 -65 -1 53 c-2 46 -5 53 -19 48 -30 -9 -98 -10 -110 -3 -9 6 -13 -17
-15 -85 -2 -51 -7 47 -12 219 -4 171 -5 316 -1 322 3 7 42 11 91 11 l84 0 -1
-217z m2971 197 c431 -52 845 -280 1131 -622 24 -28 -24 16 -106 98 -201 201
-345 298 -592 398 -335 137 -704 162 -1058 71 -303 -78 -565 -221 -780 -427
-101 -96 -234 -259 -283 -347 l-23 -41 136 0 c88 0 134 -4 130 -10 -4 -6 -62
-10 -140 -10 l-135 0 -26 -41 c-54 -86 -121 -257 -165 -424 -16 -60 -27 -90
-24 -65 14 108 118 406 174 495 l19 30 -117 120 c-64 66 -194 200 -289 298
l-172 177 -126 0 c-116 0 -127 -2 -143 -21 -10 -12 -29 -21 -44 -21 -27 0 -27
-1 -28 -82 l-2 -81 -8 85 c-5 47 -5 153 -1 235 l7 150 5 -94 c5 -91 6 -94 30
-98 14 -2 34 -14 45 -28 20 -24 25 -25 140 -25 l120 1 290 -296 c160 -162 293
-295 297 -295 3 0 18 20 32 44 126 215 371 456 603 593 202 119 446 203 668
232 99 12 335 13 435 1z m-3210 -400 c0 -140 -4 -220 -10 -220 -6 0 -9 3 -9 8
1 4 1 27 0 52 l-1 46 -70 -1 -70 0 -1 -45 c-1 -37 -2 -41 -9 -20 -10 30 -13
384 -3 393 3 4 44 7 90 7 l83 0 0 -220z m-240 -90 l0 -131 -82 3 -83 3 -3 114
c-1 63 0 121 2 128 4 9 29 13 86 13 l80 0 0 -130z m1964 -921 c20 -16 26 -29
24 -49 -2 -23 11 -43 74 -109 l77 -81 143 -2 143 -1 -122 -10 c-67 -5 -132 -7
-146 -3 -13 3 -59 41 -101 85 -76 78 -78 78 -120 74 -37 -5 -46 -2 -60 18 -23
33 -20 54 10 78 33 26 45 26 78 0z m-2138 -134 c354 -41 387 -45 382 -51 -2
-2 -146 12 -318 31 -173 19 -336 35 -363 35 -92 0 -157 -45 -207 -145 l-32
-65 3 -236 c4 -205 2 -230 -9 -192 -9 30 -12 102 -10 248 3 183 5 210 24 250
40 86 135 156 215 159 9 1 151 -15 315 -34z m7404 -520 c0 -165 -3 -215 -12
-215 -7 -1 -55 -7 -105 -14 l-93 -13 -2 101 c-1 56 -2 147 -3 204 -1 65 2 105
9 110 8 5 124 29 199 41 4 0 7 -96 7 -214z m-231 -71 l0 -171 -77 -11 c-42 -7
-87 -12 -99 -12 l-23 0 0 200 c0 199 0 200 23 204 12 3 54 11 92 18 l70 13 7
-35 c4 -19 7 -112 7 -206z m231 -644 c0 -184 14 -165 -127 -173 l-83 -5 0 158
0 158 78 7 c42 3 84 8 92 9 40 9 40 11 40 -154z m-237 63 c3 -38 2 -104 -2
-148 -6 -57 -8 -67 -10 -35 -1 25 -5 40 -9 34 -14 -21 -51 -34 -104 -36 l-53
-1 60 -7 60 -7 -68 -1 -68 -2 3 128 3 127 55 6 c30 3 71 6 91 7 l36 2 6 -67z
m-9529 -8 c44 -4 100 -11 124 -15 35 -6 42 -5 38 6 -3 8 -3 14 -1 14 5 0 145
-275 145 -285 0 -8 -254 7 -271 16 -15 8 -140 283 -138 305 0 5 5 -1 11 -13 9
-18 22 -22 92 -28z m11266 -109 l0 -144 -82 -6 c-46 -3 -134 -9 -195 -12
l-113 -7 0 140 0 140 38 7 c20 3 62 5 92 5 50 -2 52 -2 20 -9 -28 -6 -21 -8
36 -9 137 -2 253 20 162 32 -32 4 -32 4 5 5 l37 2 0 -144z m-10665 101 l50 -3
87 -144 c48 -80 88 -148 88 -151 0 -4 -53 -4 -117 -2 -141 6 -128 -5 -226 182
l-68 130 68 -5 c37 -3 91 -6 118 -7z m10255 -130 l0 -144 -112 -6 c-62 -4
-139 -7 -170 -7 l-58 0 0 135 0 135 28 1 c21 0 164 14 300 28 9 1 12 -34 12
-142z m-9741 91 c49 -62 200 -282 196 -286 -2 -3 -55 -1 -118 3 l-114 7 -85
131 c-47 73 -91 142 -97 155 l-12 23 105 -4 c98 -3 107 -5 125 -29z m349 4
l55 3 74 -85 c41 -47 101 -118 134 -157 l60 -73 -108 0 c-73 0 -114 4 -125 13
-26 21 -228 296 -228 311 0 2 19 0 42 -5 23 -6 66 -9 96 -7z m7412 -182 c-628
-5 -615 -4 -661 -56 -45 -52 -49 -74 -49 -291 0 -117 -5 -215 -10 -223 -7 -11
-10 -6 -10 22 0 30 -3 35 -19 31 -10 -3 -22 0 -25 6 -5 7 -81 11 -233 11
l-227 0 -168 -167 c-92 -92 -168 -163 -168 -158 0 6 74 84 165 175 l165 165
219 0 c170 0 222 3 234 14 9 7 26 11 37 8 19 -5 20 0 20 141 0 81 5 163 10
183 16 56 51 100 99 126 l44 23 581 -2 581 -3 -585 -5z m2388 -132 c0 -51 -3
-78 -5 -60 -2 17 -9 32 -14 32 -40 0 -109 -27 -139 -55 -21 -20 -44 -32 -57
-30 -13 1 -23 -2 -23 -5 0 -4 -17 -10 -38 -14 -21 -3 -48 -16 -61 -30 l-23
-24 24 -5 c15 -3 11 -5 -14 -6 l-38 -1 0 129 0 130 53 5 c28 3 111 10 182 14
72 5 136 10 143 10 9 2 12 -22 10 -90z m-408 -66 l0 -129 -107 -6 c-58 -4
-135 -7 -170 -7 l-63 0 0 124 0 124 118 9 c64 6 141 11 170 11 l52 2 0 -128z
m-2304 -28 c107 -51 72 -234 -44 -234 -71 0 -122 52 -122 125 0 49 23 89 62
108 42 21 62 21 104 1z m21 -294 c48 -21 83 -70 83 -115 0 -23 -3 -26 -10 -15
-5 8 -17 15 -27 15 -22 0 -78 -24 -115 -49 -20 -13 -41 -17 -78 -14 -27 1 -50
0 -50 -4 0 -5 5 -8 12 -8 6 0 8 -3 4 -7 -15 -15 -36 32 -36 79 0 39 6 54 31
83 49 55 115 68 186 35z m-7969 -50 c5 0 -1 -259 -8 -315 -4 -33 -8 -50 -9
-37 0 13 -8 22 -17 22 -11 0 -14 6 -10 18 3 9 -7 1 -22 -18 -49 -62 -115 -135
-136 -149 -11 -8 10 22 47 66 37 44 67 84 67 87 0 4 -17 14 -37 23 l-38 15
-100 -104 c-97 -101 -176 -172 -105 -94 19 22 29 36 22 32 -7 -4 -20 -5 -28
-2 -13 5 -13 9 0 34 8 16 36 53 63 83 26 30 38 46 27 36 -11 -9 -24 -14 -28
-10 -3 4 -42 -28 -85 -71 l-78 -77 -6 107 c-4 59 -7 166 -7 237 l0 130 243 -6
c133 -4 243 -7 245 -7z m740 -145 c-2 -74 -2 -135 -1 -135 1 0 23 30 49 68 26
37 66 90 89 117 23 28 44 57 48 65 4 12 6 11 6 -3 1 -10 -8 -28 -20 -40 -40
-42 -159 -205 -168 -230 -5 -14 -34 -55 -63 -92 -87 -111 -103 -125 -46 -40
29 44 61 92 70 106 l16 26 -33 -16 c-18 -9 -31 -19 -29 -22 6 -10 -27 -22 -63
-24 -21 -2 -30 2 -26 9 4 7 2 8 -5 1 -6 -5 -12 -28 -15 -50 -2 -22 -4 58 -5
178 l-2 217 101 0 100 0 -3 -135z m10402 -109 l0 -145 -97 -3 c-54 -2 -101 -2
-105 0 -5 2 -8 68 -8 148 l0 144 105 0 105 0 0 -144z m210 -1 l0 -145 -95 0
-95 0 0 145 0 145 95 0 95 0 0 -145z m-212 -251 c3 -75 3 -76 -20 -69 -39 12
-60 36 -47 54 15 21 -46 -44 -94 -100 l-38 -44 36 51 c35 51 35 52 13 58 -33
9 -36 8 -41 -11 -3 -10 -5 -4 -6 13 0 17 -4 52 -7 78 l-7 46 104 0 104 0 3
-76z m-7716 -141 c-30 -11 -131 -96 -155 -130 -36 -53 -47 -86 -47 -148 0 -45
6 -61 41 -113 111 -168 426 -314 877 -406 366 -76 640 -101 1087 -100 274 0
363 4 524 23 635 72 1052 204 1261 398 79 73 104 120 104 198 0 93 -42 160
-150 235 -66 46 -60 55 8 10 144 -95 201 -230 146 -346 -121 -258 -682 -460
-1488 -536 -175 -16 -694 -16 -880 0 -722 64 -1267 236 -1478 467 -107 117
-105 254 5 356 43 41 146 110 152 103 3 -4 0 -9 -7 -11z m143 -215 c76 -54
155 -93 290 -144 l60 -22 -70 5 c-144 9 -200 22 -297 68 -107 50 -108 52 -108
154 l0 64 23 -34 c12 -19 59 -60 102 -91z m-677 -727 c48 -25 97 -77 116 -123
13 -30 16 -75 14 -225 l-2 -188 -5 190 c-5 155 -9 196 -24 222 -28 52 -84 101
-127 113 -26 7 -195 10 -498 8 l-459 -3 -49 -30 c-36 -23 -56 -44 -76 -85
l-28 -55 -1 -473 c0 -294 -4 -470 -10 -467 -5 4 -9 97 -9 221 0 184 -2 214
-15 214 -8 0 -23 9 -32 20 -16 19 -30 20 -185 20 l-168 0 -43 39 c-35 32 -47
38 -74 34 -36 -6 -57 21 -48 60 5 20 -14 47 -120 163 l-126 139 130 -135 c110
-114 134 -134 156 -132 35 5 55 -14 55 -51 0 -21 10 -41 32 -64 l32 -33 169 0
c153 0 171 2 194 20 14 11 29 17 34 14 5 -3 9 85 9 202 0 232 6 264 59 325 68
80 55 79 589 79 446 0 475 -1 510 -19z m5212 -1 c-454 -5 -443 -4 -501 -67
-64 -69 -63 -62 -69 -483 -3 -212 -7 -339 -8 -284 -2 98 -3 102 -24 104 -13 1
-151 4 -309 6 l-285 5 -89 89 c-49 50 -97 90 -106 90 -9 0 -24 9 -35 21 -16
18 -19 40 -22 138 -1 64 -8 126 -14 138 -13 27 -12 29 25 38 29 8 38 -10 15
-33 -7 -7 -11 -39 -10 -79 0 -38 1 -86 2 -108 0 -34 5 -43 30 -57 17 -9 30
-25 30 -36 0 -10 40 -57 89 -105 l88 -87 269 0 c148 0 286 3 307 6 l37 7 0
256 c0 150 5 272 11 294 12 46 69 111 118 137 34 18 61 19 451 17 l415 -1
-415 -6z m117 -209 c7 -9 13 -19 13 -23 0 -4 21 -8 48 -10 l47 -3 0 -60 0 -60
-169 -3 c-188 -3 -186 -4 -186 63 0 52 13 65 67 65 32 0 45 5 53 21 22 40 99
47 127 10z m-4380 -26 c3 -9 -2 -24 -11 -34 -12 -13 -16 -39 -16 -112 0 -99
-11 -136 -45 -154 -11 -5 -78 -67 -148 -137 -116 -116 -132 -128 -165 -129
-20 -1 -112 0 -204 1 -142 2 -170 0 -183 -14 -25 -25 -35 -19 -35 19 0 38 18
47 40 19 11 -13 43 -15 214 -13 l201 2 153 153 152 154 0 104 c0 59 -4 108
-10 111 -5 3 -10 15 -10 26 0 15 7 19 30 19 18 0 33 -6 37 -15z m-1377 -83
c101 -53 152 -133 158 -249 4 -63 1 -78 -26 -133 l-30 -63 94 -90 c52 -49 94
-96 94 -105 0 -21 -29 -52 -50 -52 -18 0 -190 171 -190 189 0 7 -19 0 -46 -15
-60 -35 -159 -44 -232 -20 -69 23 -143 91 -172 158 -66 153 16 337 175 396 51
19 174 10 225 -16z m2772 -127 c-2 -10 -10 -24 -18 -30 -13 -9 -14 -39 -10
-175 2 -91 6 -173 7 -182 3 -16 22 -18 214 -20 165 -1 115 -4 -235 -12 -493
-12 -467 -8 -532 -80 -54 -59 -58 -94 -58 -494 0 -201 -2 -363 -4 -361 -2 2
-7 166 -10 364 -8 422 -5 437 72 514 65 65 94 71 324 71 l195 0 7 38 c3 20 6
102 6 182 0 133 -2 147 -20 163 -35 30 -26 49 23 45 35 -3 41 -6 39 -23z
m1771 -495 l-272 -5 -68 -66 c-347 -336 -322 -308 -316 -344 7 -43 -29 -71
-70 -56 -17 7 -28 7 -32 1 -4 -6 -74 -10 -166 -10 -133 0 -161 -3 -165 -15 -4
-8 -15 -15 -25 -15 -14 0 -19 7 -19 30 0 22 5 30 18 30 10 0 23 -5 28 -10 7
-7 69 -9 165 -8 l154 3 3 30 c5 44 30 67 69 63 31 -2 46 11 226 190 l193 192
275 -2 274 -2 -272 -6z m-1710 -184 c99 -41 132 -174 67 -265 -72 -103 -236
-82 -286 36 -60 141 80 288 219 229z m-78 -398 c19 -9 31 -8 49 2 20 10 34 10
76 0 112 -27 191 -129 188 -244 0 -34 -3 -46 -5 -26 -7 72 -14 100 -24 94 -5
-3 -16 -1 -23 5 -9 7 -22 5 -47 -9 -141 -77 -189 -92 -324 -100 -116 -7 -117
-7 -40 -10 44 -1 143 -6 220 -10 123 -6 110 -7 -105 -6 l-245 1 -3 60 c-2 37
3 75 13 100 39 103 187 181 270 143z"/>
<path d="M8228 7347 c-60 -60 -108 -111 -108 -113 0 -2 14 -11 31 -19 16 -9
47 -34 68 -55 l38 -40 136 144 c168 177 169 183 34 188 l-92 3 -107 -108z"/>
<path d="M6875 7197 c-61 -29 -120 -92 -134 -144 -7 -25 -11 -245 -11 -636 0
-570 1 -600 19 -635 24 -47 73 -96 120 -119 32 -16 60 -18 231 -15 107 1 211
7 230 12 41 10 459 4 609 -10 124 -11 189 -1 244 37 41 29 67 61 85 108 9 22
11 196 8 645 -2 523 -5 620 -18 651 -20 45 -91 106 -140 119 -46 13 -438 4
-555 -12 -61 -8 -104 -8 -165 0 -46 6 -171 14 -278 17 -192 6 -196 6 -245 -18z
m1227 -122 c15 -11 37 -38 48 -61 19 -39 20 -59 20 -583 0 -454 -2 -547 -14
-570 -22 -41 -81 -89 -118 -96 -18 -3 -272 -5 -565 -3 -521 3 -532 3 -560 24
-15 11 -38 36 -50 54 l-23 33 0 557 0 557 23 34 c12 18 38 44 57 57 l34 22
560 -2 c543 -3 562 -4 588 -23z"/>
<path d="M6945 7076 c-37 -16 -70 -52 -84 -89 -7 -19 -11 -209 -11 -566 l0
-538 23 -33 c12 -18 35 -43 50 -54 28 -21 36 -21 575 -21 546 0 547 0 582 22
20 12 46 40 58 61 22 40 22 41 22 576 0 522 -1 538 -21 577 -14 29 -32 46 -62
60 -40 17 -72 19 -572 18 -420 0 -536 -3 -560 -13z m549 -414 c82 -231 206
-605 203 -608 -2 -2 -36 -5 -77 -6 l-73 -3 -26 77 c-29 90 -17 85 -197 80
l-111 -3 -17 -57 c-31 -99 -36 -103 -114 -98 -36 2 -68 8 -69 13 -3 7 149 461
234 701 l15 42 91 0 92 0 49 -138z m446 -237 l0 -375 -75 0 -75 0 0 368 c0
203 3 372 7 375 3 4 37 7 75 7 l68 0 0 -375z"/>
<path d="M7307 6487 c-26 -78 -47 -145 -47 -147 0 -3 43 -4 95 -2 84 3 95 5
91 20 -3 9 -25 75 -49 145 l-42 128 -48 -144z"/>
<path d="M6840 5539 c0 -252 13 -269 128 -162 l72 68 0 91 0 92 -77 5 c-43 2
-88 8 -100 12 -23 7 -23 7 -23 -106z"/>
<path d="M7059 5624 c-1 -5 0 -47 1 -94 l1 -85 -76 -76 c-67 -67 -75 -80 -69
-103 4 -19 1 -33 -11 -46 -16 -18 -16 -18 4 -13 11 3 26 3 33 0 7 -2 17 -5 22
-5 5 0 12 -5 15 -10 7 -12 24 -15 67 -13 31 1 89 43 76 55 -3 4 1 4 10 1 23
-9 33 46 24 142 -4 48 -2 72 4 68 6 -3 10 -38 10 -76 l0 -70 40 32 40 32 0
129 0 128 -64 0 c-35 0 -78 3 -95 6 -17 4 -31 3 -32 -2z"/>
<path d="M7838 5623 l-78 -4 0 -123 c0 -110 2 -125 20 -141 20 -18 20 -17 20
40 0 99 8 57 15 -80 4 -71 9 -133 11 -137 11 -18 24 -6 24 22 0 17 3 30 8 30
18 -1 34 -19 29 -34 -5 -11 -1 -16 13 -16 21 0 27 15 10 23 -6 3 -5 4 2 3 7
-1 15 -13 18 -25 4 -19 13 -23 54 -26 36 -2 52 1 63 15 11 12 27 17 52 15 20
-1 24 0 9 2 -22 3 -29 11 -33 37 -4 18 -5 40 -3 48 2 9 -27 50 -64 91 l-68 75
0 96 c0 71 -3 95 -12 94 -7 -1 -48 -4 -90 -5z"/>
<path d="M7270 5488 l-1 -133 -44 -34 c-61 -45 -61 -87 0 -52 6 3 15 6 20 6 6
0 13 16 16 35 l6 35 8 -43 c4 -25 11 -39 15 -32 5 8 14 9 26 3 17 -8 39 -10
47 -3 1 1 18 3 37 4 19 1 40 4 45 8 21 13 34 -8 38 -57 2 -28 4 50 5 173 l2
222 -110 0 -110 0 0 -132z"/>
<path d="M7522 5398 c1 -123 3 -195 5 -160 4 55 6 61 19 48 16 -16 83 -15 156
3 26 6 39 5 42 -3 2 -6 5 2 5 17 1 18 6 27 14 24 6 -2 11 -13 9 -24 -2 -11 4
-23 13 -26 29 -12 17 40 -15 63 l-30 21 0 130 0 129 -110 0 -110 0 2 -222z"/>
<path d="M6491 4986 c1 -119 10 -175 22 -143 5 13 18 17 51 17 39 0 47 4 62
30 13 21 20 26 26 17 4 -7 8 11 8 39 l0 50 -85 51 -85 51 1 -112z"/>
<path d="M8458 5059 c-47 -32 -222 -128 -257 -141 -14 -5 -1 -58 14 -58 7 0
18 -7 25 -15 7 -8 30 -20 51 -27 38 -11 52 -27 27 -29 -7 0 -4 -4 7 -9 27 -12
37 -12 31 -1 -9 14 6 131 15 125 5 -3 9 -34 9 -70 0 -35 2 -64 4 -64 2 0 13
-3 23 -6 14 -4 15 -4 4 4 -21 15 -5 29 43 36 24 4 49 13 55 20 8 9 11 59 9
144 l-3 130 -57 -39z"/>
<path d="M10763 8292 c-52 -28 -76 -68 -81 -132 -5 -67 12 -107 60 -144 93
-70 224 -24 259 92 21 71 -20 160 -87 188 -45 19 -112 17 -151 -4z"/>
<path d="M13635 4575 c-22 -19 -43 -35 -47 -35 -5 0 -8 -8 -8 -17 -1 -18 -30
-65 -30 -48 0 4 -9 0 -20 -10 -22 -20 -18 -35 10 -35 12 0 22 11 30 34 6 18
20 42 30 51 23 21 26 13 6 -18 -8 -12 -17 -32 -21 -44 -6 -22 -4 -23 44 -23
l51 0 0 90 c0 50 -1 90 -3 90 -1 0 -20 -16 -42 -35z"/>
<path d="M4635 2865 c-5 -2 -22 -6 -38 -9 -38 -9 -106 -73 -128 -121 -50 -108
6 -249 116 -290 68 -26 153 -17 207 22 86 62 120 178 79 268 -40 89 -161 155
-236 130z"/>
</g>
</svg>
