<?xml version="1.0" standalone="no"?>
<!DOCTYPE svg PUBLIC "-//W3C//DTD SVG 20010904//EN"
 "http://www.w3.org/TR/2001/REC-SVG-20010904/DTD/svg10.dtd">
<svg version="1.0" xmlns="http://www.w3.org/2000/svg"
 width="512.000000pt" height="512.000000pt" viewBox="0 0 512.000000 512.000000"
 preserveAspectRatio="xMidYMid meet">

<g transform="translate(0.000000,512.000000) scale(0.100000,-0.100000)"
fill="#000000" stroke="none">
<path d="M2360 5113 c-610 -46 -1199 -325 -1635 -774 -201 -207 -345 -413
-471 -674 -261 -541 -322 -1146 -174 -1735 111 -441 338 -838 670 -1171 210
-210 387 -342 635 -470 714 -371 1549 -385 2270 -40 282 136 484 279 711 505
220 221 357 412 489 681 92 188 137 309 185 500 150 598 86 1208 -186 1754
-133 269 -271 459 -488 677 -227 226 -429 369 -711 505 -278 133 -556 209
-870 239 -102 9 -320 11 -425 3z m408 -574 c781 -85 1439 -617 1682 -1359 313
-953 -132 -1985 -1041 -2419 -754 -360 -1658 -202 -2254 394 -780 780 -780
2030 0 2810 320 321 739 524 1185 574 110 12 317 13 428 0z"/>
<path d="M1665 3721 c-50 -22 -103 -74 -121 -118 -19 -43 -18 -145 1 -190 37
-87 94 -117 225 -118 80 0 103 4 143 23 85 43 125 154 97 272 -15 65 -68 123
-125 139 -63 17 -174 13 -220 -8z"/>
<path d="M3048 3130 c-123 -21 -232 -81 -309 -169 l-46 -53 -12 77 c-6 42 -11
85 -11 95 0 19 -8 20 -202 20 l-201 0 6 -302 c4 -166 7 -499 7 -740 l0 -438
230 0 230 0 0 460 0 460 25 63 c33 80 85 133 149 152 97 29 171 13 232 -49 72
-75 74 -93 74 -624 l0 -462 236 0 235 0 -3 518 c-4 493 -5 521 -26 595 -12 43
-36 106 -54 140 -41 78 -138 176 -209 211 -99 48 -233 66 -351 46z"/>
<path d="M1550 2360 l0 -740 225 0 225 0 0 740 0 740 -225 0 -225 0 0 -740z"/>
</g>
</svg>
